<?xml version='1.0' encoding='utf-8'?>
<!DOCTYPE svg PUBLIC '-//W3C//DTD SVG 1.1//EN' 'http://www.w3.org/Graphics/SVG/1.1/DTD/svg11.dtd'>
<svg version="1.1" xmlns="http://www.w3.org/2000/svg" viewBox="0 0 512 512" xmlns:xlink="http://www.w3.org/1999/xlink" enable-background="new 0 0 512 512">
  <g>
    <g>
      <path d="m42.3,160.4c45.8,39.6 105.6,62.7 169.5,65.7 0.5,0.5 1,1 1.5,1.4l54.4,47c3.9,3.3 8.6,5 13.3,5 5.7,0 11.4-2.4 15.5-7.1 7.4-8.5 6.4-21.4-2.1-28.8l-23.6-20.4c46.6-6.9 90-24.6 126.2-51.7l46.1,39.8c9.7,8.5 22.6,4.7 28.8-2.1 7.6-8.3 6.4-21.4-2.1-28.8l-41.2-35.4 41.2-35.5c8.5-7.4 9.5-20.3 2.1-28.8-7.4-8.5-20.3-9.5-28.8-2.1l-46.1,39.7c-36-27-79.2-44.7-125.6-51.6l23-19.8c8.5-7.4 9.5-20.3 2.1-28.8-7.4-8.5-20.3-9.5-28.8-2.1l-54.4,47c-0.3,0.2-0.5,0.5-0.8,0.8-64.2,3-124.2,26.1-170.2,65.8-4.5,3.9-7.1,9.5-7.1,15.5 2.13163e-14,5.8 2.6,11.5 7.1,15.3zm184.3-56.2c50.6,0 98.5,14.3 137.5,40.7-39,26.4-86.9,40.7-137.5,40.7-50.6,0-98.5-14.3-137.5-40.7 39-26.3 86.9-40.7 137.5-40.7z"/>
      <path d="m42.6,395.4l37-22.1c16.5-9.9 37-9.9 53.5,0 29.8,17.8 66.7,17.8 96.5,0l.1-.1c16.5-9.9 37-9.9 53.5,0l.6,.3c29.8,17.8 66.7,17.8 96.5,0l1-.6c16.5-9.9 37-9.9 53.5,0l.5,.3 35.1,18.5c10.1,5.3 22.7,1.5 28.1-8.5 5.4-10 1.6-22.4-8.6-27.7l-34.2-18c-29.7-17.5-66.4-17.4-96,0.3l-1,.6c-16.5,9.9-37,9.9-53.5,0l-.6-.3c-29.8-17.8-66.7-17.8-96.5,0l-.1,.1c-16.5,9.9-37,9.9-53.5,0-29.8-17.8-66.7-17.8-96.5,0l-37,22.1c-9.8,5.9-13,18.5-7,28.2 5.4,8.4 18.8,10.8 28.6,6.9z"/>
      <path d="m490.1,459.3l-34.2-18c-29.7-17.5-66.4-17.4-96,0.3l-1,.6c-16.5,9.9-37,9.9-53.5,0l-.6-.3c-29.8-17.8-66.7-17.8-96.5,0l-.1,.1c-16.5,9.9-37,9.9-53.5,0-29.8-17.8-66.7-17.8-96.5,0l-37,22.1c-9.8,5.9-13,18.5-7,28.2 5.3,8.4 18.7,10.9 28.5,6.9l37-22.1c16.5-9.9 37-9.9 53.5,0 29.8,17.8 66.7,17.8 96.5,0l.1-.1c16.5-9.9 37-9.9 53.5,0l.6,.3c29.8,17.8 66.7,17.8 96.5,0l1-.6c16.5-9.9 37-9.9 53.5,0l.5,.3 35.1,18.5c10.1,5.3 22.7,1.5 28.1-8.5 5.4-9.9 1.6-22.4-8.5-27.7z"/>
    </g>
  </g>
</svg>
